<svg xmlns="http://www.w3.org/2000/svg" width="14.2" height="17.75" viewBox="0 0 14.2 17.75">
  <g id="Icon_ionic-ios-copy" data-name="Icon ionic-ios-copy" transform="translate(-4.5 -1.125)">
    <path id="Path_10" data-name="Path 10" d="M24.113,4.789h3.328a.223.223,0,0,0,.222-.222h0a1.032,1.032,0,0,0-.37-.788L24.442,1.406a1.383,1.383,0,0,0-.762-.274h0a.273.273,0,0,0-.274.274V4.087A.708.708,0,0,0,24.113,4.789Z" transform="translate(-8.963 -0.003)" fill="#7d21a3"/>
    <path id="Path_11" data-name="Path 11" d="M16.153,4.083V1.125H11.308a1.187,1.187,0,0,0-1.183,1.183V14.733a1.187,1.187,0,0,0,1.183,1.183h8.875a1.187,1.187,0,0,0,1.183-1.183V5.747h-3.55A1.667,1.667,0,0,1,16.153,4.083Z" transform="translate(-2.667)" fill="#7d21a3"/>
    <path id="Path_12" data-name="Path 12" d="M6.423,17.9V5.625h-.74A1.187,1.187,0,0,0,4.5,6.808V19.825a1.187,1.187,0,0,0,1.183,1.183H15.15a1.187,1.187,0,0,0,1.183-1.183v-.74H7.606A1.187,1.187,0,0,1,6.423,17.9Z" transform="translate(0 -2.133)" fill="#7d21a3"/>
  </g>
</svg>
