<?xml version="1.0" encoding="utf-8"?>
<!-- Generator: Adobe Illustrator 23.0.1, SVG Export Plug-In . SVG Version: 6.00 Build 0)  -->
<svg version="1.1" id="Iconly_Bold_Home" xmlns="http://www.w3.org/2000/svg" xmlns:xlink="http://www.w3.org/1999/xlink" x="0px"
	 y="0px" viewBox="0 0 22.8 24" style="enable-background:new 0 0 22.8 24;" xml:space="preserve">
<style type="text/css">
	.st0{fill:#1A1A1A;}
</style>
<g id="Home">
	<path id="Path_2" class="st0" d="M7.9,22.5v-3.7c0-0.9,0.8-1.7,1.7-1.7h3.4c0.5,0,0.9,0.2,1.2,0.5c0.3,0.3,0.5,0.7,0.5,1.2v3.7
		c0,0.4,0.2,0.8,0.4,1c0.3,0.3,0.7,0.4,1,0.4h2.3c1.1,0,2.1-0.4,2.9-1.2c0.8-0.8,1.2-1.8,1.2-2.9V9.4c0-0.9-0.4-1.7-1.1-2.3l-8-6.3
		C12.3-0.3,10.3-0.3,9,0.9L1.2,7.1C0.4,7.7,0,8.5,0,9.4v10.4C0,22.1,1.9,24,4.1,24c0,0,0,0,0,0h2.3C7.3,24,7.9,23.3,7.9,22.5
		L7.9,22.5z"/>
</g>
</svg>
