<svg xmlns="http://www.w3.org/2000/svg" width="91.871" height="84.806" viewBox="0 0 91.871 84.806">
  <g id="Icon_ionic-ios-wallet" data-name="Icon ionic-ios-wallet" transform="translate(-3.375 -4.499)">
    <path id="Path_23" data-name="Path 23" d="M82,11.25H16.626A13.261,13.261,0,0,0,3.375,24.5V61.6A13.261,13.261,0,0,0,16.626,74.853H82A13.261,13.261,0,0,0,95.246,61.6V24.5A13.261,13.261,0,0,0,82,11.25Z" transform="translate(0 14.453)" fill="#fff"/>
    <path id="Path_24" data-name="Path 24" d="M66.093,4.723,14.217,14.859C10.242,15.743,4.5,19.74,4.5,24.6c0,0,3.313-4.2,10.821-4.2H78.7V15.875a12.681,12.681,0,0,0-3.07-8.3h0A10.444,10.444,0,0,0,66.093,4.723Z" transform="translate(2.408 0)" fill="#fff"/>
  </g>
</svg>
