<svg xmlns="http://www.w3.org/2000/svg" width="16.001" height="15.159" viewBox="0 0 16.001 15.159">
  <path id="Icon_material-account-balance-wallet" data-name="Icon material-account-balance-wallet" d="M19.659,17.132v.842a1.689,1.689,0,0,1-1.684,1.684H6.184A1.684,1.684,0,0,1,4.5,17.975V6.184A1.684,1.684,0,0,1,6.184,4.5h11.79a1.689,1.689,0,0,1,1.684,1.684v.842H12.079A1.684,1.684,0,0,0,10.4,8.711v6.737a1.684,1.684,0,0,0,1.684,1.684Zm-7.579-1.684H20.5V8.711H12.079Zm3.369-2.105a1.263,1.263,0,1,1,1.263-1.263A1.262,1.262,0,0,1,15.448,13.343Z" transform="translate(-4.5 -4.5)" fill="#fff"/>
</svg>
